<svg width="2075" height="167" viewBox="0 0 2075 167" fill="none" xmlns="http://www.w3.org/2000/svg">
<path d="M894 70C894 70 494 83.9825 101.208 85.6046C-291.585 87.2266 796.5 85.6046 894 99L875.962 83.9825L894 70Z" stroke="white" stroke-width="6"/>
<path d="M1181 99.9999C1181 99.9999 1581.03 86.7701 1973.82 85.8872C2366.62 85.0043 1278.53 84.5788 1181.05 71L1199.06 86.0513L1181 99.9999Z" stroke="white" stroke-width="6"/>
<circle cx="1037.5" cy="85.5" r="17" stroke="white" stroke-width="3"/>
<circle cx="1037.5" cy="85.5" r="9.5" stroke="white" stroke-width="4"/>
<path d="M1077 86.5C1111.4 71.7 1120.5 68 1120.5 68L1163 86.5L1120.5 105.5L1077 86.5Z" stroke="white" stroke-width="4"/>
<path d="M1098 86.3733C1115.6 78.8747 1120.26 77 1120.26 77L1142 86.3733L1120.26 96L1098 86.3733Z" stroke="white" stroke-width="5"/>
<path d="M911 85.5C945.4 70.7 954.5 67 954.5 67L997 85.5L954.5 104.5L911 85.5Z" stroke="white" stroke-width="4"/>
<path d="M932 85.3733C949.6 77.8747 954.256 76 954.256 76L976 85.3733L954.256 95L932 85.3733Z" stroke="white" stroke-width="5"/>
<path d="M867.041 149C807.47 149 828.996 109.17 867.041 117.468C900.944 124.862 957.15 149 1040.75 149C1124.35 149 1186.03 123.511 1210.46 117.468C1249.5 107.807 1265.52 149 1210.46 149" stroke="white" stroke-width="5" stroke-linecap="round" stroke-linejoin="round"/>
<path d="M1209.34 20.781C1268.91 21.5326 1246.89 61.0883 1208.95 52.3109C1175.14 44.4896 1119.24 19.6442 1035.65 18.5895C952.055 17.5348 890.06 42.244 865.56 47.9783C826.394 57.1454 810.896 15.7538 865.958 16.4485" stroke="white" stroke-width="5" stroke-linecap="round" stroke-linejoin="round"/>
</svg>
